<mxfile host="Electron" modified="2023-10-19T08:47:06.383Z" agent="Mozilla/5.0 (Windows NT 10.0; Win64; x64) AppleWebKit/537.36 (KHTML, like Gecko) draw.io/22.0.2 Chrome/114.0.5735.289 Electron/25.8.4 Safari/537.36" version="22.0.2" etag="AChqoZkNgcP4_oQy_oDj" type="device">
  <diagram id="Y9wUdF-7nAlEsyhXzX7H" name="Página-1">
    <mxGraphModel dx="1632" dy="827" grid="1" gridSize="10" guides="1" tooltips="1" connect="1" arrows="1" fold="1" page="1" pageScale="1" pageWidth="827" pageHeight="1169" math="0" shadow="0">
      <root>
        <mxCell id="0" />
        <mxCell id="1" parent="0" />
        <mxCell id="pa_um8dWg5vMXd4UhJnd-3" value="" style="edgeStyle=orthogonalEdgeStyle;rounded=0;orthogonalLoop=1;jettySize=auto;html=1;" edge="1" parent="1" source="pa_um8dWg5vMXd4UhJnd-1" target="pa_um8dWg5vMXd4UhJnd-2">
          <mxGeometry relative="1" as="geometry" />
        </mxCell>
        <mxCell id="pa_um8dWg5vMXd4UhJnd-53" style="edgeStyle=orthogonalEdgeStyle;rounded=0;orthogonalLoop=1;jettySize=auto;html=1;exitX=0;exitY=0.75;exitDx=0;exitDy=0;" edge="1" parent="1" source="pa_um8dWg5vMXd4UhJnd-1" target="pa_um8dWg5vMXd4UhJnd-11">
          <mxGeometry relative="1" as="geometry" />
        </mxCell>
        <mxCell id="pa_um8dWg5vMXd4UhJnd-54" style="edgeStyle=orthogonalEdgeStyle;rounded=0;orthogonalLoop=1;jettySize=auto;html=1;exitX=0;exitY=0.5;exitDx=0;exitDy=0;" edge="1" parent="1" source="pa_um8dWg5vMXd4UhJnd-1" target="pa_um8dWg5vMXd4UhJnd-10">
          <mxGeometry relative="1" as="geometry" />
        </mxCell>
        <mxCell id="pa_um8dWg5vMXd4UhJnd-55" style="edgeStyle=orthogonalEdgeStyle;rounded=0;orthogonalLoop=1;jettySize=auto;html=1;exitX=0;exitY=0.25;exitDx=0;exitDy=0;entryX=1;entryY=0.5;entryDx=0;entryDy=0;" edge="1" parent="1" source="pa_um8dWg5vMXd4UhJnd-1" target="pa_um8dWg5vMXd4UhJnd-9">
          <mxGeometry relative="1" as="geometry" />
        </mxCell>
        <mxCell id="pa_um8dWg5vMXd4UhJnd-56" style="edgeStyle=orthogonalEdgeStyle;rounded=0;orthogonalLoop=1;jettySize=auto;html=1;exitX=0.25;exitY=0;exitDx=0;exitDy=0;entryX=0.5;entryY=1;entryDx=0;entryDy=0;" edge="1" parent="1" source="pa_um8dWg5vMXd4UhJnd-1" target="pa_um8dWg5vMXd4UhJnd-8">
          <mxGeometry relative="1" as="geometry" />
        </mxCell>
        <mxCell id="pa_um8dWg5vMXd4UhJnd-58" style="edgeStyle=orthogonalEdgeStyle;rounded=0;orthogonalLoop=1;jettySize=auto;html=1;exitX=1;exitY=0.5;exitDx=0;exitDy=0;entryX=0;entryY=0.5;entryDx=0;entryDy=0;" edge="1" parent="1" source="pa_um8dWg5vMXd4UhJnd-1" target="pa_um8dWg5vMXd4UhJnd-12">
          <mxGeometry relative="1" as="geometry" />
        </mxCell>
        <mxCell id="pa_um8dWg5vMXd4UhJnd-1" value="EMPLEADO" style="rounded=0;whiteSpace=wrap;html=1;" vertex="1" parent="1">
          <mxGeometry x="120" y="120" width="160" height="80" as="geometry" />
        </mxCell>
        <mxCell id="pa_um8dWg5vMXd4UhJnd-33" style="edgeStyle=orthogonalEdgeStyle;rounded=0;orthogonalLoop=1;jettySize=auto;html=1;exitX=0.5;exitY=1;exitDx=0;exitDy=0;entryX=0.5;entryY=0;entryDx=0;entryDy=0;" edge="1" parent="1" source="pa_um8dWg5vMXd4UhJnd-2" target="pa_um8dWg5vMXd4UhJnd-6">
          <mxGeometry relative="1" as="geometry" />
        </mxCell>
        <mxCell id="pa_um8dWg5vMXd4UhJnd-35" style="edgeStyle=orthogonalEdgeStyle;rounded=0;orthogonalLoop=1;jettySize=auto;html=1;exitX=0.5;exitY=0;exitDx=0;exitDy=0;entryX=0.25;entryY=0;entryDx=0;entryDy=0;" edge="1" parent="1" source="pa_um8dWg5vMXd4UhJnd-2" target="pa_um8dWg5vMXd4UhJnd-4">
          <mxGeometry relative="1" as="geometry" />
        </mxCell>
        <mxCell id="pa_um8dWg5vMXd4UhJnd-2" value="iS A" style="triangle;whiteSpace=wrap;html=1;rounded=0;rotation=90;" vertex="1" parent="1">
          <mxGeometry x="175" y="220" width="50" height="90" as="geometry" />
        </mxCell>
        <mxCell id="pa_um8dWg5vMXd4UhJnd-4" value="P. GESTION" style="rounded=0;whiteSpace=wrap;html=1;" vertex="1" parent="1">
          <mxGeometry x="320" y="360" width="120" height="60" as="geometry" />
        </mxCell>
        <mxCell id="pa_um8dWg5vMXd4UhJnd-36" style="edgeStyle=orthogonalEdgeStyle;rounded=0;orthogonalLoop=1;jettySize=auto;html=1;exitX=0.5;exitY=1;exitDx=0;exitDy=0;entryX=0.5;entryY=0;entryDx=0;entryDy=0;" edge="1" parent="1" source="pa_um8dWg5vMXd4UhJnd-5" target="pa_um8dWg5vMXd4UhJnd-32">
          <mxGeometry relative="1" as="geometry" />
        </mxCell>
        <mxCell id="pa_um8dWg5vMXd4UhJnd-5" value="PILOTO" style="rounded=0;whiteSpace=wrap;html=1;" vertex="1" parent="1">
          <mxGeometry x="170" y="360" width="120" height="60" as="geometry" />
        </mxCell>
        <mxCell id="pa_um8dWg5vMXd4UhJnd-6" value="MECANICO" style="rounded=0;whiteSpace=wrap;html=1;" vertex="1" parent="1">
          <mxGeometry x="30" y="360" width="120" height="60" as="geometry" />
        </mxCell>
        <mxCell id="pa_um8dWg5vMXd4UhJnd-7" value="Cargo" style="ellipse;whiteSpace=wrap;html=1;" vertex="1" parent="1">
          <mxGeometry x="220" y="40" width="90" height="50" as="geometry" />
        </mxCell>
        <mxCell id="pa_um8dWg5vMXd4UhJnd-8" value="Salario" style="ellipse;whiteSpace=wrap;html=1;" vertex="1" parent="1">
          <mxGeometry x="110" y="40" width="100" height="50" as="geometry" />
        </mxCell>
        <mxCell id="pa_um8dWg5vMXd4UhJnd-9" value="Dirección" style="ellipse;whiteSpace=wrap;html=1;" vertex="1" parent="1">
          <mxGeometry y="50" width="90" height="50" as="geometry" />
        </mxCell>
        <mxCell id="pa_um8dWg5vMXd4UhJnd-10" value="Nombre" style="ellipse;whiteSpace=wrap;html=1;" vertex="1" parent="1">
          <mxGeometry y="110" width="80" height="40" as="geometry" />
        </mxCell>
        <mxCell id="pa_um8dWg5vMXd4UhJnd-11" value="&lt;u&gt;Nº Empresa&lt;/u&gt;" style="ellipse;whiteSpace=wrap;html=1;" vertex="1" parent="1">
          <mxGeometry x="-10" y="160" width="100" height="40" as="geometry" />
        </mxCell>
        <mxCell id="pa_um8dWg5vMXd4UhJnd-12" value="Realiza" style="rhombus;whiteSpace=wrap;html=1;" vertex="1" parent="1">
          <mxGeometry x="360" y="130" width="120" height="80" as="geometry" />
        </mxCell>
        <mxCell id="pa_um8dWg5vMXd4UhJnd-46" style="edgeStyle=orthogonalEdgeStyle;rounded=0;orthogonalLoop=1;jettySize=auto;html=1;exitX=0.5;exitY=0;exitDx=0;exitDy=0;entryX=0.5;entryY=1;entryDx=0;entryDy=0;" edge="1" parent="1" source="pa_um8dWg5vMXd4UhJnd-14" target="pa_um8dWg5vMXd4UhJnd-20">
          <mxGeometry relative="1" as="geometry" />
        </mxCell>
        <mxCell id="pa_um8dWg5vMXd4UhJnd-48" style="edgeStyle=orthogonalEdgeStyle;rounded=0;orthogonalLoop=1;jettySize=auto;html=1;exitX=0.5;exitY=0;exitDx=0;exitDy=0;entryX=0.5;entryY=1;entryDx=0;entryDy=0;" edge="1" parent="1" source="pa_um8dWg5vMXd4UhJnd-14" target="pa_um8dWg5vMXd4UhJnd-18">
          <mxGeometry relative="1" as="geometry" />
        </mxCell>
        <mxCell id="pa_um8dWg5vMXd4UhJnd-52" style="edgeStyle=orthogonalEdgeStyle;rounded=0;orthogonalLoop=1;jettySize=auto;html=1;exitX=0.75;exitY=1;exitDx=0;exitDy=0;" edge="1" parent="1" source="pa_um8dWg5vMXd4UhJnd-14" target="pa_um8dWg5vMXd4UhJnd-22">
          <mxGeometry relative="1" as="geometry" />
        </mxCell>
        <mxCell id="pa_um8dWg5vMXd4UhJnd-14" value="VUELO" style="rounded=0;whiteSpace=wrap;html=1;" vertex="1" parent="1">
          <mxGeometry x="530" y="200" width="120" height="60" as="geometry" />
        </mxCell>
        <mxCell id="pa_um8dWg5vMXd4UhJnd-15" value="Fecha" style="ellipse;whiteSpace=wrap;html=1;" vertex="1" parent="1">
          <mxGeometry x="720" y="60" width="100" height="50" as="geometry" />
        </mxCell>
        <mxCell id="pa_um8dWg5vMXd4UhJnd-16" value="H. Llegada" style="ellipse;whiteSpace=wrap;html=1;" vertex="1" parent="1">
          <mxGeometry x="690" y="110" width="100" height="50" as="geometry" />
        </mxCell>
        <mxCell id="pa_um8dWg5vMXd4UhJnd-17" value="H. Salida" style="ellipse;whiteSpace=wrap;html=1;" vertex="1" parent="1">
          <mxGeometry x="650" y="160" width="110" height="40" as="geometry" />
        </mxCell>
        <mxCell id="pa_um8dWg5vMXd4UhJnd-18" value="&lt;u&gt;Nº Vuelo&lt;/u&gt;" style="ellipse;whiteSpace=wrap;html=1;" vertex="1" parent="1">
          <mxGeometry x="640" y="20" width="100" height="50" as="geometry" />
        </mxCell>
        <mxCell id="pa_um8dWg5vMXd4UhJnd-19" value="Destino" style="ellipse;whiteSpace=wrap;html=1;" vertex="1" parent="1">
          <mxGeometry x="580" y="70" width="90" height="50" as="geometry" />
        </mxCell>
        <mxCell id="pa_um8dWg5vMXd4UhJnd-20" value="Origen" style="ellipse;whiteSpace=wrap;html=1;" vertex="1" parent="1">
          <mxGeometry x="530" y="120" width="90" height="40" as="geometry" />
        </mxCell>
        <mxCell id="pa_um8dWg5vMXd4UhJnd-39" value="" style="edgeStyle=orthogonalEdgeStyle;rounded=0;orthogonalLoop=1;jettySize=auto;html=1;" edge="1" parent="1" source="pa_um8dWg5vMXd4UhJnd-21" target="pa_um8dWg5vMXd4UhJnd-14">
          <mxGeometry relative="1" as="geometry" />
        </mxCell>
        <mxCell id="pa_um8dWg5vMXd4UhJnd-21" value="Usa" style="rhombus;whiteSpace=wrap;html=1;" vertex="1" parent="1">
          <mxGeometry x="500" y="300" width="80" height="80" as="geometry" />
        </mxCell>
        <mxCell id="pa_um8dWg5vMXd4UhJnd-22" value="Van" style="rhombus;whiteSpace=wrap;html=1;" vertex="1" parent="1">
          <mxGeometry x="650" y="320" width="80" height="80" as="geometry" />
        </mxCell>
        <mxCell id="pa_um8dWg5vMXd4UhJnd-42" style="edgeStyle=orthogonalEdgeStyle;rounded=0;orthogonalLoop=1;jettySize=auto;html=1;exitX=0.75;exitY=1;exitDx=0;exitDy=0;entryX=1;entryY=0.5;entryDx=0;entryDy=0;" edge="1" parent="1" source="pa_um8dWg5vMXd4UhJnd-23" target="pa_um8dWg5vMXd4UhJnd-28">
          <mxGeometry relative="1" as="geometry" />
        </mxCell>
        <mxCell id="pa_um8dWg5vMXd4UhJnd-43" style="edgeStyle=orthogonalEdgeStyle;rounded=0;orthogonalLoop=1;jettySize=auto;html=1;exitX=0.75;exitY=1;exitDx=0;exitDy=0;entryX=1;entryY=0.5;entryDx=0;entryDy=0;" edge="1" parent="1" source="pa_um8dWg5vMXd4UhJnd-23" target="pa_um8dWg5vMXd4UhJnd-27">
          <mxGeometry relative="1" as="geometry" />
        </mxCell>
        <mxCell id="pa_um8dWg5vMXd4UhJnd-44" style="edgeStyle=orthogonalEdgeStyle;rounded=0;orthogonalLoop=1;jettySize=auto;html=1;exitX=0.75;exitY=1;exitDx=0;exitDy=0;entryX=1;entryY=0.5;entryDx=0;entryDy=0;" edge="1" parent="1" source="pa_um8dWg5vMXd4UhJnd-23" target="pa_um8dWg5vMXd4UhJnd-26">
          <mxGeometry relative="1" as="geometry" />
        </mxCell>
        <mxCell id="pa_um8dWg5vMXd4UhJnd-45" style="edgeStyle=orthogonalEdgeStyle;rounded=0;orthogonalLoop=1;jettySize=auto;html=1;exitX=0.75;exitY=1;exitDx=0;exitDy=0;entryX=1;entryY=0.5;entryDx=0;entryDy=0;" edge="1" parent="1" source="pa_um8dWg5vMXd4UhJnd-23" target="pa_um8dWg5vMXd4UhJnd-25">
          <mxGeometry relative="1" as="geometry" />
        </mxCell>
        <mxCell id="pa_um8dWg5vMXd4UhJnd-23" value="PASAJERO" style="rounded=0;whiteSpace=wrap;html=1;" vertex="1" parent="1">
          <mxGeometry x="700" y="440" width="120" height="60" as="geometry" />
        </mxCell>
        <mxCell id="pa_um8dWg5vMXd4UhJnd-71" style="edgeStyle=orthogonalEdgeStyle;rounded=0;orthogonalLoop=1;jettySize=auto;html=1;exitX=0.5;exitY=1;exitDx=0;exitDy=0;entryX=1;entryY=0.5;entryDx=0;entryDy=0;" edge="1" parent="1" source="pa_um8dWg5vMXd4UhJnd-24" target="pa_um8dWg5vMXd4UhJnd-31">
          <mxGeometry relative="1" as="geometry" />
        </mxCell>
        <mxCell id="pa_um8dWg5vMXd4UhJnd-74" style="edgeStyle=orthogonalEdgeStyle;rounded=0;orthogonalLoop=1;jettySize=auto;html=1;exitX=0.75;exitY=1;exitDx=0;exitDy=0;entryX=1;entryY=0.5;entryDx=0;entryDy=0;" edge="1" parent="1" source="pa_um8dWg5vMXd4UhJnd-24" target="pa_um8dWg5vMXd4UhJnd-29">
          <mxGeometry relative="1" as="geometry" />
        </mxCell>
        <mxCell id="pa_um8dWg5vMXd4UhJnd-24" value="AVIÓN" style="rounded=0;whiteSpace=wrap;html=1;" vertex="1" parent="1">
          <mxGeometry x="440" y="480" width="120" height="60" as="geometry" />
        </mxCell>
        <mxCell id="pa_um8dWg5vMXd4UhJnd-25" value="Teléfono" style="ellipse;whiteSpace=wrap;html=1;" vertex="1" parent="1">
          <mxGeometry x="635" y="690" width="120" height="40" as="geometry" />
        </mxCell>
        <mxCell id="pa_um8dWg5vMXd4UhJnd-26" value="&lt;u&gt;Dni&lt;/u&gt;" style="ellipse;whiteSpace=wrap;html=1;" vertex="1" parent="1">
          <mxGeometry x="635" y="640" width="120" height="40" as="geometry" />
        </mxCell>
        <mxCell id="pa_um8dWg5vMXd4UhJnd-27" value="Dirección" style="ellipse;whiteSpace=wrap;html=1;" vertex="1" parent="1">
          <mxGeometry x="640" y="585" width="110" height="40" as="geometry" />
        </mxCell>
        <mxCell id="pa_um8dWg5vMXd4UhJnd-28" value="Nombre" style="ellipse;whiteSpace=wrap;html=1;" vertex="1" parent="1">
          <mxGeometry x="640" y="520" width="110" height="50" as="geometry" />
        </mxCell>
        <mxCell id="pa_um8dWg5vMXd4UhJnd-29" value="&lt;u&gt;Nº Serie&lt;/u&gt;" style="ellipse;whiteSpace=wrap;html=1;" vertex="1" parent="1">
          <mxGeometry x="380" y="700" width="110" height="50" as="geometry" />
        </mxCell>
        <mxCell id="pa_um8dWg5vMXd4UhJnd-30" value="Modelo" style="ellipse;whiteSpace=wrap;html=1;" vertex="1" parent="1">
          <mxGeometry x="370" y="635" width="110" height="50" as="geometry" />
        </mxCell>
        <mxCell id="pa_um8dWg5vMXd4UhJnd-31" value="conductor" style="ellipse;whiteSpace=wrap;html=1;" vertex="1" parent="1">
          <mxGeometry x="370" y="575" width="110" height="50" as="geometry" />
        </mxCell>
        <mxCell id="pa_um8dWg5vMXd4UhJnd-32" value="Pilota" style="rhombus;whiteSpace=wrap;html=1;" vertex="1" parent="1">
          <mxGeometry x="200" y="480" width="80" height="80" as="geometry" />
        </mxCell>
        <mxCell id="pa_um8dWg5vMXd4UhJnd-34" style="edgeStyle=orthogonalEdgeStyle;rounded=0;orthogonalLoop=1;jettySize=auto;html=1;exitX=1;exitY=0.5;exitDx=0;exitDy=0;entryX=0.2;entryY=0.017;entryDx=0;entryDy=0;entryPerimeter=0;" edge="1" parent="1" source="pa_um8dWg5vMXd4UhJnd-2" target="pa_um8dWg5vMXd4UhJnd-5">
          <mxGeometry relative="1" as="geometry" />
        </mxCell>
        <mxCell id="pa_um8dWg5vMXd4UhJnd-37" style="edgeStyle=orthogonalEdgeStyle;rounded=0;orthogonalLoop=1;jettySize=auto;html=1;exitX=1;exitY=0.5;exitDx=0;exitDy=0;entryX=0.017;entryY=0.65;entryDx=0;entryDy=0;entryPerimeter=0;" edge="1" parent="1" source="pa_um8dWg5vMXd4UhJnd-32" target="pa_um8dWg5vMXd4UhJnd-24">
          <mxGeometry relative="1" as="geometry" />
        </mxCell>
        <mxCell id="pa_um8dWg5vMXd4UhJnd-38" style="edgeStyle=orthogonalEdgeStyle;rounded=0;orthogonalLoop=1;jettySize=auto;html=1;exitX=0;exitY=1;exitDx=0;exitDy=0;entryX=0.575;entryY=-0.05;entryDx=0;entryDy=0;entryPerimeter=0;" edge="1" parent="1" source="pa_um8dWg5vMXd4UhJnd-21" target="pa_um8dWg5vMXd4UhJnd-24">
          <mxGeometry relative="1" as="geometry" />
        </mxCell>
        <mxCell id="pa_um8dWg5vMXd4UhJnd-41" style="edgeStyle=orthogonalEdgeStyle;rounded=0;orthogonalLoop=1;jettySize=auto;html=1;exitX=1;exitY=1;exitDx=0;exitDy=0;entryX=0.583;entryY=0;entryDx=0;entryDy=0;entryPerimeter=0;" edge="1" parent="1" source="pa_um8dWg5vMXd4UhJnd-22" target="pa_um8dWg5vMXd4UhJnd-23">
          <mxGeometry relative="1" as="geometry" />
        </mxCell>
        <mxCell id="pa_um8dWg5vMXd4UhJnd-47" style="edgeStyle=orthogonalEdgeStyle;rounded=0;orthogonalLoop=1;jettySize=auto;html=1;exitX=0.5;exitY=0;exitDx=0;exitDy=0;entryX=0.667;entryY=1;entryDx=0;entryDy=0;entryPerimeter=0;" edge="1" parent="1" source="pa_um8dWg5vMXd4UhJnd-14" target="pa_um8dWg5vMXd4UhJnd-19">
          <mxGeometry relative="1" as="geometry" />
        </mxCell>
        <mxCell id="pa_um8dWg5vMXd4UhJnd-49" style="edgeStyle=orthogonalEdgeStyle;rounded=0;orthogonalLoop=1;jettySize=auto;html=1;exitX=1;exitY=0.5;exitDx=0;exitDy=0;entryX=0.645;entryY=1.075;entryDx=0;entryDy=0;entryPerimeter=0;" edge="1" parent="1" source="pa_um8dWg5vMXd4UhJnd-14" target="pa_um8dWg5vMXd4UhJnd-17">
          <mxGeometry relative="1" as="geometry" />
        </mxCell>
        <mxCell id="pa_um8dWg5vMXd4UhJnd-50" style="edgeStyle=orthogonalEdgeStyle;rounded=0;orthogonalLoop=1;jettySize=auto;html=1;exitX=1;exitY=0.5;exitDx=0;exitDy=0;entryX=0.8;entryY=1.02;entryDx=0;entryDy=0;entryPerimeter=0;" edge="1" parent="1" source="pa_um8dWg5vMXd4UhJnd-14" target="pa_um8dWg5vMXd4UhJnd-16">
          <mxGeometry relative="1" as="geometry" />
        </mxCell>
        <mxCell id="pa_um8dWg5vMXd4UhJnd-51" style="edgeStyle=orthogonalEdgeStyle;rounded=0;orthogonalLoop=1;jettySize=auto;html=1;exitX=1;exitY=0.5;exitDx=0;exitDy=0;entryX=0.78;entryY=0.98;entryDx=0;entryDy=0;entryPerimeter=0;" edge="1" parent="1" source="pa_um8dWg5vMXd4UhJnd-14" target="pa_um8dWg5vMXd4UhJnd-15">
          <mxGeometry relative="1" as="geometry" />
        </mxCell>
        <mxCell id="pa_um8dWg5vMXd4UhJnd-57" style="edgeStyle=orthogonalEdgeStyle;rounded=0;orthogonalLoop=1;jettySize=auto;html=1;exitX=0.75;exitY=0;exitDx=0;exitDy=0;entryX=0.344;entryY=0.96;entryDx=0;entryDy=0;entryPerimeter=0;" edge="1" parent="1" source="pa_um8dWg5vMXd4UhJnd-1" target="pa_um8dWg5vMXd4UhJnd-7">
          <mxGeometry relative="1" as="geometry" />
        </mxCell>
        <mxCell id="pa_um8dWg5vMXd4UhJnd-59" style="edgeStyle=orthogonalEdgeStyle;rounded=0;orthogonalLoop=1;jettySize=auto;html=1;exitX=1;exitY=0.5;exitDx=0;exitDy=0;entryX=0.025;entryY=0.633;entryDx=0;entryDy=0;entryPerimeter=0;" edge="1" parent="1" source="pa_um8dWg5vMXd4UhJnd-12" target="pa_um8dWg5vMXd4UhJnd-14">
          <mxGeometry relative="1" as="geometry" />
        </mxCell>
        <mxCell id="pa_um8dWg5vMXd4UhJnd-60" value="(n,n)" style="text;html=1;align=center;verticalAlign=middle;resizable=0;points=[];autosize=1;strokeColor=none;fillColor=none;" vertex="1" parent="1">
          <mxGeometry x="300" y="115" width="50" height="30" as="geometry" />
        </mxCell>
        <mxCell id="pa_um8dWg5vMXd4UhJnd-61" value="(2,n)" style="text;html=1;align=center;verticalAlign=middle;resizable=0;points=[];autosize=1;strokeColor=none;fillColor=none;" vertex="1" parent="1">
          <mxGeometry x="235" y="438" width="50" height="30" as="geometry" />
        </mxCell>
        <mxCell id="pa_um8dWg5vMXd4UhJnd-62" value="N,M" style="text;html=1;align=center;verticalAlign=middle;resizable=0;points=[];autosize=1;strokeColor=none;fillColor=none;" vertex="1" parent="1">
          <mxGeometry x="255" y="488" width="50" height="30" as="geometry" />
        </mxCell>
        <mxCell id="pa_um8dWg5vMXd4UhJnd-63" value="(1,n)" style="text;html=1;align=center;verticalAlign=middle;resizable=0;points=[];autosize=1;strokeColor=none;fillColor=none;" vertex="1" parent="1">
          <mxGeometry x="395" y="488" width="50" height="30" as="geometry" />
        </mxCell>
        <mxCell id="pa_um8dWg5vMXd4UhJnd-64" value="(1,1)" style="text;html=1;align=center;verticalAlign=middle;resizable=0;points=[];autosize=1;strokeColor=none;fillColor=none;" vertex="1" parent="1">
          <mxGeometry x="455" y="448" width="50" height="30" as="geometry" />
        </mxCell>
        <mxCell id="pa_um8dWg5vMXd4UhJnd-65" value="1:N" style="text;html=1;align=center;verticalAlign=middle;resizable=0;points=[];autosize=1;strokeColor=none;fillColor=none;" vertex="1" parent="1">
          <mxGeometry x="460" y="318" width="40" height="30" as="geometry" />
        </mxCell>
        <mxCell id="pa_um8dWg5vMXd4UhJnd-66" value="(1,N)" style="text;html=1;align=center;verticalAlign=middle;resizable=0;points=[];autosize=1;strokeColor=none;fillColor=none;" vertex="1" parent="1">
          <mxGeometry x="525" y="258" width="50" height="30" as="geometry" />
        </mxCell>
        <mxCell id="pa_um8dWg5vMXd4UhJnd-67" value="(0,N)" style="text;html=1;align=center;verticalAlign=middle;resizable=0;points=[];autosize=1;strokeColor=none;fillColor=none;" vertex="1" parent="1">
          <mxGeometry x="485" y="198" width="50" height="30" as="geometry" />
        </mxCell>
        <mxCell id="pa_um8dWg5vMXd4UhJnd-68" value="N,M" style="text;html=1;align=center;verticalAlign=middle;resizable=0;points=[];autosize=1;strokeColor=none;fillColor=none;" vertex="1" parent="1">
          <mxGeometry x="425" y="118" width="50" height="30" as="geometry" />
        </mxCell>
        <mxCell id="pa_um8dWg5vMXd4UhJnd-69" value="N:M" style="text;html=1;align=center;verticalAlign=middle;resizable=0;points=[];autosize=1;strokeColor=none;fillColor=none;" vertex="1" parent="1">
          <mxGeometry x="705" y="318" width="50" height="30" as="geometry" />
        </mxCell>
        <mxCell id="pa_um8dWg5vMXd4UhJnd-70" value="(1,n)" style="text;html=1;align=center;verticalAlign=middle;resizable=0;points=[];autosize=1;strokeColor=none;fillColor=none;" vertex="1" parent="1">
          <mxGeometry x="755" y="408" width="50" height="30" as="geometry" />
        </mxCell>
        <mxCell id="pa_um8dWg5vMXd4UhJnd-72" style="edgeStyle=orthogonalEdgeStyle;rounded=0;orthogonalLoop=1;jettySize=auto;html=1;exitX=0.5;exitY=1;exitDx=0;exitDy=0;entryX=1.009;entryY=0.64;entryDx=0;entryDy=0;entryPerimeter=0;" edge="1" parent="1" source="pa_um8dWg5vMXd4UhJnd-24" target="pa_um8dWg5vMXd4UhJnd-30">
          <mxGeometry relative="1" as="geometry" />
        </mxCell>
      </root>
    </mxGraphModel>
  </diagram>
</mxfile>
